<svg xmlns="http://www.w3.org/2000/svg" version="1.1"
     width="128" height="128" viewBox="0 0 1500 1500">
    <g transform="matrix(0.6666666666666666,0,0,0.6666666666666666,249.39393939393938,435.99032258064517)">
        <svg viewBox="0 0 396 248" data-background-color="#000000" preserveAspectRatio="xMidYMid meet" height="939"
             width="1500" xmlns="http://www.w3.org/2000/svg">
            <g id="tight-bounds" transform="matrix(1,0,0,1,0.2400000000000091,0.4000000000000057)">
                <svg viewBox="0 0 395.52 247.2" height="247.2" width="395.52">
                    <g>
                        <svg></svg>
                    </g>
                    <g>
                        <svg viewBox="0 0 395.52 247.2" height="247.2" width="395.52">
                            <mask id="32ea6f31-5e0f-4b59-9455-08ba8c9453f1">
                                <rect width="395.52" height="247.2" fill="white"></rect>
                                <g transform="matrix(1,0,0,1,0,56.257520161290316)" id="clone">
                                    <svg viewBox="0 0 395.52 134.68495967741936" height="134.68495967741936"
                                         width="395.52">
                                        <g>
                                            <svg viewBox="0 0 395.52 134.68495967741936" height="134.68495967741936"
                                                 width="395.52">
                                                <g>
                                                    <svg viewBox="0 0 395.52 134.68495967741936"
                                                         height="134.68495967741936" width="395.52">
                                                        <g>
                                                            <svg viewBox="0 0 395.52 134.68495967741936"
                                                                 height="134.68495967741936" width="395.52">
                                                                <g id="SvgjsG3171">
                                                                    <svg viewBox="0 0 395.52 134.68495967741936"
                                                                         height="134.68495967741936" width="395.52"
                                                                         id="SvgjsSvg3170">
                                                                        <g>
                                                                            <svg viewBox="0 0 395.52 134.68495967741936"
                                                                                 height="134.68495967741936"
                                                                                 width="395.52">
                                                                                <g transform="matrix(1,0,0,1,0,0)">
                                                                                    <svg width="395.52"
                                                                                         viewBox="-0.5 -39.05 149.78 51.670370370370364"
                                                                                         height="134.68495967741936"
                                                                                         data-palette-color="#ffffff">
                                                                                        <path d="M7.05-8.55L2.5-8.55 2.5-26.7 7.05-26.7 7.05-8.55ZM7.05-26.7L2.5-26.7Q2.5-29.45 3.75-31.58 5-33.7 7.25-34.88 9.5-36.05 12.4-36.05L12.4-36.05 12.4-32.1Q9.9-32.1 8.47-30.7 7.05-29.3 7.05-26.7L7.05-26.7ZM2.5-8.6L2.5-8.6 7.05-8.6Q7.05-6 8.47-4.58 9.9-3.15 12.4-3.15L12.4-3.15 12.4 0.8Q9.5 0.8 7.25-0.4 5-1.6 3.75-3.7 2.5-5.8 2.5-8.6ZM22.5-26.25L18.35-25.4Q18.05-28.55 16.48-30.33 14.9-32.1 12.35-32.1L12.35-32.1 12.35-36.05Q16.6-36.05 19.28-33.45 21.95-30.85 22.5-26.25L22.5-26.25ZM18.35-9.85L18.35-9.85 22.5-9.05Q21.95-4.4 19.28-1.8 16.6 0.8 12.35 0.8L12.35 0.8 12.35-3.15Q14.9-3.15 16.48-4.93 18.05-6.7 18.35-9.85ZM31.55 0L27 0 27-25.25 31.55-25.25 31.55 0ZM31.55-16.9L29.5-16.9Q29.5-19.45 30.35-21.48 31.2-23.5 32.67-24.65 34.15-25.8 35.95-25.8L35.95-25.8 35.55-21.55Q33.8-21.55 32.67-20.23 31.55-18.9 31.55-16.9L31.55-16.9ZM40.1-24.2L38.55-20.4Q37.95-20.9 37.12-21.23 36.3-21.55 35.55-21.55L35.55-21.55 35.95-25.8Q37.1-25.8 38.2-25.38 39.3-24.95 40.1-24.2L40.1-24.2ZM60.3 0L55.74 0 55.74-17.2 60.3-17.2 60.3 0ZM49.64 0.75L49.64 0.75 49.99-3Q51.8-3 53.07-3.9 54.34-4.8 55.05-6.55 55.74-8.3 55.74-10.7L55.74-10.7 57.99-10.8Q57.99-7.4 56.89-4.8 55.8-2.2 53.92-0.73 52.05 0.75 49.64 0.75ZM49.99-3L49.64 0.75Q47.39 0.75 45.55-0.3 43.7-1.35 42.59-3.18 41.49-5 41.49-7.25L41.49-7.25 45.8-7.4Q45.8-5.5 47.07-4.25 48.34-3 49.99-3L49.99-3ZM45.8-7.4L41.49-7.25Q41.49-9.6 42.67-11.38 43.84-13.15 45.84-14.2 47.84-15.25 50.39-15.25L50.39-15.25 50.64-11.75Q48.55-11.75 47.17-10.53 45.8-9.3 45.8-7.4L45.8-7.4ZM58.09-11.75L50.64-11.75 50.39-15.25 58.09-15.25 58.09-11.75ZM57.99-10.8L55.74-10.7 55.74-17.15 57.99-17.15 57.99-10.8ZM60.3-17.1L60.3-17.1 55.74-17.1Q55.74-19.3 54.42-20.7 53.09-22.1 50.99-22.1L50.99-22.1 50.99-26Q53.7-26 55.77-24.85 57.84-23.7 59.07-21.68 60.3-19.65 60.3-17.1ZM46.3-17.7L46.3-17.7 42.09-18.55Q42.39-20.8 43.62-22.45 44.84-24.1 46.77-25.05 48.7-26 51.05-26L51.05-26 51.05-22.1Q49.2-22.1 47.87-21.03 46.55-19.95 46.3-17.7ZM71.14 0L66.59 0 66.59-27.6 71.14-27.6 71.14 0ZM77.29-21.5L63.69-21.5 63.69-25.25 77.29-25.25 77.29-21.5ZM71.14-27.6L66.59-27.6Q66.59-31.55 68.59-33.77 70.59-36 74.09-36L74.09-36 74.49-32.1Q73.44-32.1 72.69-31.55 71.94-31 71.54-30 71.14-29 71.14-27.6L71.14-27.6ZM78.64-34.45L76.84-31.25Q76.29-31.65 75.72-31.88 75.14-32.1 74.49-32.1L74.49-32.1 74.09-36Q75.29-36 76.47-35.65 77.64-35.3 78.64-34.45L78.64-34.45ZM87.24-7.65L82.69-7.65 82.69-35.3 87.24-35.25 87.24-7.65ZM93.54-21.5L79.79-21.5 79.79-25.25 93.54-25.25 93.54-21.5ZM82.69-7.7L82.69-7.7 87.24-7.7Q87.24-6.25 87.64-5.25 88.04-4.25 88.79-3.73 89.54-3.2 90.59-3.2L90.59-3.2 90.19 0.75Q86.69 0.75 84.69-1.48 82.69-3.7 82.69-7.7ZM92.94-4.05L92.94-4.05 94.74-0.8Q93.74-0.05 92.57 0.35 91.39 0.75 90.19 0.75L90.19 0.75 90.59-3.2Q91.24-3.2 91.82-3.43 92.39-3.65 92.94-4.05ZM103.54 0L98.99 0 98.99-25.25 103.54-25.25 103.54 0ZM101.24-28.6L101.24-28.6Q99.99-28.6 99.14-29.45 98.29-30.3 98.29-31.55L98.29-31.55Q98.29-32.8 99.14-33.68 99.99-34.55 101.24-34.55L101.24-34.55Q102.49-34.55 103.36-33.68 104.24-32.8 104.24-31.55L104.24-31.55Q104.24-30.3 103.36-29.45 102.49-28.6 101.24-28.6ZM115.74 0L111.19 0 111.19-27.6 115.74-27.6 115.74 0ZM121.89-21.5L108.29-21.5 108.29-25.25 121.89-25.25 121.89-21.5ZM115.74-27.6L111.19-27.6Q111.19-31.55 113.19-33.77 115.19-36 118.69-36L118.69-36 119.09-32.1Q118.04-32.1 117.29-31.55 116.54-31 116.14-30 115.74-29 115.74-27.6L115.74-27.6ZM123.24-34.45L121.44-31.25Q120.89-31.65 120.31-31.88 119.74-32.1 119.09-32.1L119.09-32.1 118.69-36Q119.89-36 121.06-35.65 122.24-35.3 123.24-34.45L123.24-34.45ZM126.93 9.25L126.93 9.25 127.88 5.5Q129.83 6 131.13 5.25 132.43 4.5 133.18 2.15L133.18 2.15 137.38 2.15Q135.88 6.85 133.26 8.55 130.63 10.25 126.93 9.25ZM137.38 2.15L133.18 2.15 141.73-25.25 146.28-25.25 137.38 2.15ZM136.28-4.5L134.03 1.85 125.23-25.25 129.78-25.25 136.28-4.5Z"
                                                                                              opacity="1"
                                                                                              transform="matrix(1,0,0,1,0,0)"
                                                                                              fill="black"
                                                                                              class="wordmark-text-0"
                                                                                              id="SvgjsPath3169"
                                                                                              stroke-width="5"
                                                                                              stroke="black"
                                                                                              stroke-linejoin="round"></path>
                                                                                    </svg>
                                                                                </g>
                                                                            </svg>
                                                                        </g>
                                                                    </svg>
                                                                </g>
                                                            </svg>
                                                        </g>
                                                    </svg>
                                                </g>
                                            </svg>
                                        </g>
                                    </svg>
                                </g>
                            </mask>
                            <g mask="url(#32ea6f31-5e0f-4b59-9455-08ba8c9453f1)">
                                <g>
                                    <path d="M161.2 184.478h-30.523v-121.756h30.523zM161.2 62.722h-30.523c0-12.299 2.795-23.211 8.386-32.736 5.59-9.481 13.417-16.86 23.479-22.137 10.062-5.232 21.578-7.849 34.547-7.849v0 26.498c-11.18 0-19.968 3.131-26.363 9.391-6.351 6.261-9.526 15.205-9.526 26.833zM130.677 184.142v0h30.523c0 11.628 3.175 20.617 9.526 26.967 6.395 6.395 15.183 9.593 26.363 9.593v0 26.498c-12.969 0-24.485-2.683-34.547-8.05-10.062-5.367-17.889-12.746-23.479-22.137-5.59-9.392-8.385-20.348-8.386-32.871zM264.843 65.741l-27.84 5.702c-1.342-14.087-5.523-25.111-12.544-33.072-7.066-7.916-16.301-11.874-27.705-11.873v0-26.498c19.007 0 34.503 5.814 46.488 17.442 11.941 11.628 19.141 27.728 21.601 48.299zM237.003 175.757v0l27.84 5.366c-2.46 20.796-9.66 37.007-21.601 48.635-11.985 11.628-27.482 17.442-46.488 17.442v0-26.498c11.404 0 20.639-3.98 27.705-11.94 7.021-7.916 11.203-18.917 12.544-33.005z"
                                          fill="#635dff" fill-rule="nonzero" stroke="none" stroke-width="1"
                                          stroke-linecap="butt" stroke-linejoin="miter" stroke-miterlimit="10"
                                          stroke-dasharray="" stroke-dashoffset="0" font-family="none"
                                          font-weight="none" font-size="none" text-anchor="none"
                                          style="mix-blend-mode: normal" data-fill-palette-color="tertiary"></path>
                                </g>
                            </g>
                            <g transform="matrix(1,0,0,1,0,56.257520161290316)">
                                <svg viewBox="0 0 395.52 134.68495967741936" height="134.68495967741936" width="395.52">
                                    <g>
                                        <svg viewBox="0 0 395.52 134.68495967741936" height="134.68495967741936"
                                             width="395.52">
                                            <g>
                                                <svg viewBox="0 0 395.52 134.68495967741936" height="134.68495967741936"
                                                     width="395.52">
                                                    <g>
                                                        <svg viewBox="0 0 395.52 134.68495967741936"
                                                             height="134.68495967741936" width="395.52">
                                                            <g id="textblocktransform">
                                                                <svg viewBox="0 0 395.52 134.68495967741936"
                                                                     height="134.68495967741936" width="395.52"
                                                                     id="textblock">
                                                                    <g>
                                                                        <svg viewBox="0 0 395.52 134.68495967741936"
                                                                             height="134.68495967741936" width="395.52">
                                                                            <g transform="matrix(1,0,0,1,0,0)">
                                                                                <svg width="395.52"
                                                                                     viewBox="-0.5 -39.05 149.78 51.670370370370364"
                                                                                     height="134.68495967741936"
                                                                                     data-palette-color="#ffffff">
                                                                                    <path d="M7.05-8.55L2.5-8.55 2.5-26.7 7.05-26.7 7.05-8.55ZM7.05-26.7L2.5-26.7Q2.5-29.45 3.75-31.58 5-33.7 7.25-34.88 9.5-36.05 12.4-36.05L12.4-36.05 12.4-32.1Q9.9-32.1 8.47-30.7 7.05-29.3 7.05-26.7L7.05-26.7ZM2.5-8.6L2.5-8.6 7.05-8.6Q7.05-6 8.47-4.58 9.9-3.15 12.4-3.15L12.4-3.15 12.4 0.8Q9.5 0.8 7.25-0.4 5-1.6 3.75-3.7 2.5-5.8 2.5-8.6ZM22.5-26.25L18.35-25.4Q18.05-28.55 16.48-30.33 14.9-32.1 12.35-32.1L12.35-32.1 12.35-36.05Q16.6-36.05 19.28-33.45 21.95-30.85 22.5-26.25L22.5-26.25ZM18.35-9.85L18.35-9.85 22.5-9.05Q21.95-4.4 19.28-1.8 16.6 0.8 12.35 0.8L12.35 0.8 12.35-3.15Q14.9-3.15 16.48-4.93 18.05-6.7 18.35-9.85ZM31.55 0L27 0 27-25.25 31.55-25.25 31.55 0ZM31.55-16.9L29.5-16.9Q29.5-19.45 30.35-21.48 31.2-23.5 32.67-24.65 34.15-25.8 35.95-25.8L35.95-25.8 35.55-21.55Q33.8-21.55 32.67-20.23 31.55-18.9 31.55-16.9L31.55-16.9ZM40.1-24.2L38.55-20.4Q37.95-20.9 37.12-21.23 36.3-21.55 35.55-21.55L35.55-21.55 35.95-25.8Q37.1-25.8 38.2-25.38 39.3-24.95 40.1-24.2L40.1-24.2ZM60.3 0L55.74 0 55.74-17.2 60.3-17.2 60.3 0ZM49.64 0.75L49.64 0.75 49.99-3Q51.8-3 53.07-3.9 54.34-4.8 55.05-6.55 55.74-8.3 55.74-10.7L55.74-10.7 57.99-10.8Q57.99-7.4 56.89-4.8 55.8-2.2 53.92-0.73 52.05 0.75 49.64 0.75ZM49.99-3L49.64 0.75Q47.39 0.75 45.55-0.3 43.7-1.35 42.59-3.18 41.49-5 41.49-7.25L41.49-7.25 45.8-7.4Q45.8-5.5 47.07-4.25 48.34-3 49.99-3L49.99-3ZM45.8-7.4L41.49-7.25Q41.49-9.6 42.67-11.38 43.84-13.15 45.84-14.2 47.84-15.25 50.39-15.25L50.39-15.25 50.64-11.75Q48.55-11.75 47.17-10.53 45.8-9.3 45.8-7.4L45.8-7.4ZM58.09-11.75L50.64-11.75 50.39-15.25 58.09-15.25 58.09-11.75ZM57.99-10.8L55.74-10.7 55.74-17.15 57.99-17.15 57.99-10.8ZM60.3-17.1L60.3-17.1 55.74-17.1Q55.74-19.3 54.42-20.7 53.09-22.1 50.99-22.1L50.99-22.1 50.99-26Q53.7-26 55.77-24.85 57.84-23.7 59.07-21.68 60.3-19.65 60.3-17.1ZM46.3-17.7L46.3-17.7 42.09-18.55Q42.39-20.8 43.62-22.45 44.84-24.1 46.77-25.05 48.7-26 51.05-26L51.05-26 51.05-22.1Q49.2-22.1 47.87-21.03 46.55-19.95 46.3-17.7ZM71.14 0L66.59 0 66.59-27.6 71.14-27.6 71.14 0ZM77.29-21.5L63.69-21.5 63.69-25.25 77.29-25.25 77.29-21.5ZM71.14-27.6L66.59-27.6Q66.59-31.55 68.59-33.77 70.59-36 74.09-36L74.09-36 74.49-32.1Q73.44-32.1 72.69-31.55 71.94-31 71.54-30 71.14-29 71.14-27.6L71.14-27.6ZM78.64-34.45L76.84-31.25Q76.29-31.65 75.72-31.88 75.14-32.1 74.49-32.1L74.49-32.1 74.09-36Q75.29-36 76.47-35.65 77.64-35.3 78.64-34.45L78.64-34.45ZM87.24-7.65L82.69-7.65 82.69-35.3 87.24-35.25 87.24-7.65ZM93.54-21.5L79.79-21.5 79.79-25.25 93.54-25.25 93.54-21.5ZM82.69-7.7L82.69-7.7 87.24-7.7Q87.24-6.25 87.64-5.25 88.04-4.25 88.79-3.73 89.54-3.2 90.59-3.2L90.59-3.2 90.19 0.75Q86.69 0.75 84.69-1.48 82.69-3.7 82.69-7.7ZM92.94-4.05L92.94-4.05 94.74-0.8Q93.74-0.05 92.57 0.35 91.39 0.75 90.19 0.75L90.19 0.75 90.59-3.2Q91.24-3.2 91.82-3.43 92.39-3.65 92.94-4.05ZM103.54 0L98.99 0 98.99-25.25 103.54-25.25 103.54 0ZM101.24-28.6L101.24-28.6Q99.99-28.6 99.14-29.45 98.29-30.3 98.29-31.55L98.29-31.55Q98.29-32.8 99.14-33.68 99.99-34.55 101.24-34.55L101.24-34.55Q102.49-34.55 103.36-33.68 104.24-32.8 104.24-31.55L104.24-31.55Q104.24-30.3 103.36-29.45 102.49-28.6 101.24-28.6ZM115.74 0L111.19 0 111.19-27.6 115.74-27.6 115.74 0ZM121.89-21.5L108.29-21.5 108.29-25.25 121.89-25.25 121.89-21.5ZM115.74-27.6L111.19-27.6Q111.19-31.55 113.19-33.77 115.19-36 118.69-36L118.69-36 119.09-32.1Q118.04-32.1 117.29-31.55 116.54-31 116.14-30 115.74-29 115.74-27.6L115.74-27.6ZM123.24-34.45L121.44-31.25Q120.89-31.65 120.31-31.88 119.74-32.1 119.09-32.1L119.09-32.1 118.69-36Q119.89-36 121.06-35.65 122.24-35.3 123.24-34.45L123.24-34.45ZM126.93 9.25L126.93 9.25 127.88 5.5Q129.83 6 131.13 5.25 132.43 4.5 133.18 2.15L133.18 2.15 137.38 2.15Q135.88 6.85 133.26 8.55 130.63 10.25 126.93 9.25ZM137.38 2.15L133.18 2.15 141.73-25.25 146.28-25.25 137.38 2.15ZM136.28-4.5L134.03 1.85 125.23-25.25 129.78-25.25 136.28-4.5Z"
                                                                                          opacity="1"
                                                                                          transform="matrix(1,0,0,1,0,0)"
                                                                                          fill="#ffffff"
                                                                                          class="wordmark-text-0"
                                                                                          data-fill-palette-color="primary"
                                                                                          id="text-0"></path>
                                                                                </svg>
                                                                            </g>
                                                                        </svg>
                                                                    </g>
                                                                </svg>
                                                            </g>
                                                        </svg>
                                                    </g>
                                                </svg>
                                            </g>
                                        </svg>
                                    </g>
                                </svg>
                            </g>
                        </svg>
                    </g>
                    <defs></defs>
                </svg>
                <rect width="395.52" height="247.2" fill="none" stroke="none" visibility="hidden"></rect>
            </g>
        </svg>
    </g>
</svg>