<svg width="32" height="32" viewBox="0 0 32 32" fill="none" xmlns="http://www.w3.org/2000/svg">
<path d="M4.53347 13.8911C9.77093 13.0268 13.8769 8.69088 14.7369 3.44483L15.0255 0.923406C15.097 0.522725 14.8255 -0.0353651 14.3198 0.00470298C10.3624 0.313799 6.62789 1.62173 4.55062 2.47175C3.51913 2.89533 2.84766 3.89703 2.84766 5.01321V13.2386C2.84766 13.7251 3.28483 14.0972 3.76485 14.0199L4.53347 13.894V13.8911Z" fill="white"/>
<path d="M17.2632 3.44501C18.1261 8.69106 22.2321 13.027 27.4667 13.8913L28.2353 14.0173C28.7154 14.0974 29.1525 13.7253 29.1525 13.2359V5.01053C29.1525 3.89435 28.4811 2.89265 27.4496 2.46907C25.3694 1.61619 21.6378 0.311119 17.6804 0.00202306C17.1718 -0.038045 16.9118 0.525769 16.9718 0.920726L17.2604 3.44215L17.2632 3.44501Z" fill="white"/>
<path d="M27.4627 16.1954C20.3051 17.6092 16.9821 22.3744 16.9821 31.3955C16.9821 31.8477 17.4307 32.1625 17.8078 31.9106C21.0995 29.6868 28.3428 23.8827 29.0885 16.6218C29.1171 15.7088 27.977 16.1381 27.4627 16.1954Z" fill="white"/>
<path d="M4.53611 16.1954C11.6937 17.6092 15.0168 22.3744 15.0168 31.3955C15.0168 31.8477 14.5682 32.1625 14.191 31.9106C10.8994 29.6868 3.65606 23.8827 2.9103 16.6218C2.88173 15.7088 4.0218 16.1381 4.53611 16.1954Z" fill="white"/>
</svg>
